<?xml version="1.0" encoding="UTF-8"?>
<!DOCTYPE svg PUBLIC "-//W3C//DTD SVG 1.1//EN" "http://www.w3.org/Graphics/SVG/1.1/DTD/svg11.dtd">
<!-- Creator: CorelDRAW -->
<svg xmlns="http://www.w3.org/2000/svg" xml:space="preserve" width="24px" height="24px" style="shape-rendering:geometricPrecision; text-rendering:geometricPrecision; image-rendering:optimizeQuality; fill-rule:evenodd; clip-rule:evenodd"
viewBox="0 0 24 24"
 xmlns:xlink="http://www.w3.org/1999/xlink">
 <defs>
  <style type="text/css">
   <![CDATA[
    .fil0 {fill:#33CCFF}
   ]]>
  </style>
 </defs>
 <g id="图层_x0020_1">
  <metadata id="CorelCorpID_0Corel-Layer"/>
  <path class="fil0" d="M12.9317 13.6659l3.2945 0 0 -3.2944 -3.2945 0 0 3.2944zm-6.2427 -1.6472l0 3.9707 2.6979 0 0 2.654 5.2527 0 0 -2.654 8.0436 0 0 2.7112 -2.672 0 0 2.6904 -2.7278 0 0 2.6092 -10.669 0 0 -2.6092 -2.6685 0 0 -2.6904 -2.6289 0 0 -2.7112 0.0184 0 0 -3.9707 0 -0.0373 0 -3.9707 -0.0184 0 0 -2.7112 2.6289 0 0 -2.6904 2.6685 0 0 -2.6092 10.669 0 0 2.6092 2.7278 0 0 2.6904 2.672 0 0 2.7112 -8.0436 0 0 -2.6541 -5.2527 0 0 2.6541 -2.6979 0 0 3.9707 0 0.0373z"/>
 </g>
</svg>
