<?xml version="1.0" encoding="UTF-8" standalone="no"?>
<svg width="95px" height="28px" viewBox="0 0 95 28" version="1.1" xmlns="http://www.w3.org/2000/svg" xmlns:xlink="http://www.w3.org/1999/xlink">
    <!-- Generator: Sketch 41 (35326) - http://www.bohemiancoding.com/sketch -->
    <title>码云logo</title>
    <desc>Created with Sketch.</desc>
    <defs></defs>
    <g id="项目主页" stroke="none" stroke-width="1" fill="none" fill-rule="evenodd">
        <g id="切图-iconfont" transform="translate(-44.000000, -405.000000)">
            <g id="码云logo" transform="translate(44.000000, 405.000000)">
                <polygon id="XMLID_215_" fill="#C71D24" points="27.1407407 15.9833333 27.1407407 19.7166667 27.1407407 23.5666667 23.3481481 23.5666667 19.437037 23.5666667 15.6444444 23.5666667 11.7333333 23.5666667 7.82222222 23.5666667 4.02962963 23.5666667 4.02962963 19.7166667 4.02962963 15.9833333 4.02962963 12.1333333 4.02962963 8.28333333 4.02962963 4.55 7.82222222 4.55 11.7333333 4.55 15.6444444 4.55 19.437037 4.55 19.437037 8.28333333 19.437037 12.1333333 19.437037 15.9833333 15.6444444 15.9833333 11.7333333 15.9833333 11.7333333 12.1333333 15.6444444 12.1333333 15.6444444 8.28333333 11.7333333 8.28333333 7.82222222 8.28333333 7.82222222 12.1333333 7.82222222 15.9833333 7.82222222 19.7166667 11.7333333 19.7166667 15.6444444 19.7166667 19.437037 19.7166667 23.3481481 19.7166667 23.3481481 15.9833333 23.3481481 12.1333333 23.3481481 8.28333333 23.3481481 4.55 23.3481481 0.7 19.437037 0.7 15.6444444 0.7 11.7333333 0.7 7.82222222 0.7 4.02962963 0.7 0.118518519 0.7 0.118518519 4.55 0.118518519 8.28333333 0.118518519 12.1333333 0.118518519 15.9833333 0.118518519 19.7166667 0.118518519 23.5666667 0.118518519 27.4166667 4.02962963 27.4166667 7.82222222 27.4166667 11.7333333 27.4166667 15.6444444 27.4166667 19.437037 27.4166667 23.3481481 27.4166667 27.1407407 27.4166667 31.0518519 27.4166667 31.0518519 23.5666667 31.0518519 19.7166667 31.0518519 15.9833333"></polygon>
                <rect id="XMLID_212_" fill="#C71D24" opacity="0.600000024" x="27.1407407" y="0.7" width="3.91111111" height="3.85"></rect>
                <rect id="XMLID_209_" fill="#C71D24" opacity="0.800000012" x="27.1407407" y="8.86666667" width="3.91111111" height="3.85"></rect>
                <g id="logo_码云" transform="translate(44.000000, 3.000000)" fill="#FFFFFF">
                    <g id="Group-5">
                        <polygon id="Fill-4" points="11.8543292 2.8562934 22.3134191 2.8562934 22.3134191 0.366146699 11.8543292 0.366146699"></polygon>
                        <polygon id="Fill-5" points="11.8793142 12.2941614 23.5813232 12.2941614 23.5813232 9.72080196 11.8793142 9.72080196"></polygon>
                        <polygon id="Fill-6" points="12.1077243 17.4583374 19.0267107 17.4583374 19.0267107 14.884978 12.1077243 14.884978"></polygon>
                        <polygon id="Fill-7" points="16.6813288 22.0155844 23.5813232 22.0155844 23.5813232 19.4423081 16.6813288 19.4423081"></polygon>
                        <polygon id="Fill-8" points="19.777611 8.07500244 22.3134191 8.07500244 22.3134191 0.366229829 19.777611 0.366229829"></polygon>
                        <polygon id="Fill-9" points="11.8543292 11.0408166 14.3902217 11.0408166 14.3902217 1.6210709 11.8543292 1.6210709"></polygon>
                        <polygon id="Fill-10" points="21.0455151 22.0155844 23.5813232 22.0155844 23.5813232 11.7078484 21.0455151 11.7078484"></polygon>
                        <polygon id="Fill-11" points="0.609815801 12.2744597 10.6756453 12.2744597 10.6756453 9.80717359 0.609815801 9.80717359"></polygon>
                        <polygon id="Fill-12" points="0.609815801 2.8562934 10.6756453 2.8562934 10.6756453 0.366146699 0.609815801 0.366146699"></polygon>
                        <polygon id="Fill-13" points="2.969218 10.8376064 0.604084446 9.93673105 4.15313532 0.899797066 6.51826887 1.8007555"></polygon>
                        <polygon id="Fill-14" points="8.13983718 21.9209829 10.6756453 21.9209829 10.6756453 11.900044 8.13983718 11.900044"></polygon>
                        <polygon id="Fill-15" points="0.604160414 21.4215403 3.13996849 21.4215403 3.13996849 11.4006015 0.604160414 11.4006015"></polygon>
                        <polygon id="Fill-16" points="0.604076005 21.9800049 9.63910564 21.9800049 9.63910564 19.4779707 0.604076005 19.4779707"></polygon>
                        <polygon id="Fill-17" points="29.5674238 2.81763814 47.5316345 2.81763814 47.5316345 0.327491443 29.5674238 0.327491443"></polygon>
                        <polygon id="Fill-18" points="28.7932267 10.2672127 48.5744204 10.2672127 48.5744204 7.77706601 28.7932267 7.77706601"></polygon>
                        <polygon id="Fill-19" points="45.7157826 22.4378328 29.5674576 22.4737447 29.5674576 19.9004685 45.7157826 19.9387912"></polygon>
                        <polygon id="Fill-20" points="31.9423657 20.7887164 29.5674407 19.9133619 33.6799201 9.09213447 36.0549295 9.96765526"></polygon>
                        <path d="M50.1919202,17.8508504 C50.1919202,15.3236279 48.1043227,13.267667 45.5382118,13.267667 C43.9671115,13.267667 42.5370583,14.0293834 41.6785367,15.2891291 C41.5711688,15.4568846 41.474774,15.6318724 41.3899432,15.8134274 C41.1191599,16.3930068 40.9670553,17.0375105 40.9670553,17.7173443 C40.9670553,17.7845961 40.9692499,17.8514323 40.9721198,17.9180191 C41.3637764,17.2895594 41.9059339,16.7621022 42.5487067,16.3833638 C43.2428843,15.9742831 44.0544746,15.738777 44.9222811,15.738777 C45.0905078,15.738777 45.2565398,15.7483369 45.4202084,15.7656279 L45.7411305,15.8107672 C46.0484628,15.8648015 46.3453284,15.9487623 46.6284354,16.0593247 C47.2457167,16.4250949 47.6596573,17.0911291 47.6596573,17.8508504 C47.6596573,19.0028601 46.7080329,19.9401462 45.5382118,19.9401462 C45.499215,19.9401462 45.4604714,19.9391487 45.421981,19.9370704 L45.285492,22.4273834 C45.3688879,22.4317061 45.4539719,22.4340337 45.5382118,22.4340337 C47.2747533,22.4340337 48.79141,21.491843 49.5908454,20.0996719 L49.5914363,20.0996719 L49.5913519,20.0986743 C49.7830442,19.7645765 49.933967,19.4047917 50.036186,19.0256377 C50.1373921,18.6504738 50.1919202,18.2569384 50.1919202,17.8508504" id="Fill-21"></path>
                    </g>
                </g>
            </g>
        </g>
    </g>
</svg>