<?xml version="1.0" encoding="UTF-8" standalone="no"?>
<svg width="218px" height="218px" viewBox="0 0 218 218" version="1.1" xmlns="http://www.w3.org/2000/svg" xmlns:xlink="http://www.w3.org/1999/xlink">
    <!-- Generator: Sketch 3.8.3 (29802) - http://www.bohemiancoding.com/sketch -->
    <title>Mask Copy + Fill 1 Copy Copy Copy</title>
    <desc>Created with Sketch.</desc>
    <defs>
        <path d="M14.1619805,203.030388 C0,188.868408 0,174.706427 0,150.074104 L0,67.1170532 C0,42.48473 0,28.323961 14.1619805,14.1619805 C28.323961,0 42.4859415,0 67.1170532,0 L150.075316,0 C174.707639,0 188.868408,0 203.030388,14.1619805 C217.192369,28.323961 217.192369,42.48473 217.192369,67.1170532 L217.192369,150.074104 C217.192369,174.706427 217.192369,188.868408 203.030388,203.030388 C188.868408,217.192369 174.707639,217.192369 150.075316,217.192369 L67.1170532,217.192369 C42.4859415,217.192369 28.323961,217.192369 14.1619805,203.030388 Z" id="path-1"></path>
    </defs>
    <g id="Page-1" stroke="none" stroke-width="1" fill="none" fill-rule="evenodd">
        <g id="Artboard-36" transform="translate(-89.000000, -92.000000)">
            <g id="Mask-Copy-+-Fill-1-Copy-Copy-Copy" transform="translate(89.000000, 92.000000)">
                <mask id="mask-2" fill="white">
                    <use xlink:href="#path-1"></use>
                </mask>
                <use id="Mask-Copy" fill="#FFFFFF" xlink:href="#path-1"></use>
                <path d="M122.072523,60.4586651 L108.610499,49.8439518 L94.5454836,60.9342999 L93.8164369,61.5216959 L108.610499,73.3176989 L123.450045,61.5216959 L122.072523,60.4586651 Z M173.086305,101.623168 L108.571512,152.493999 L44.0957058,101.654357 L34.5726134,109.3035 L108.571512,167.651935 L182.610697,109.272311 L173.086305,101.623168 Z M108.571512,105.750534 L73.4642056,78.0688488 L63.9398136,85.7179921 L108.571512,120.909769 L153.240898,85.6868029 L143.716506,78.0376596 L108.571512,105.750534 Z" id="Fill-1-Copy" fill="#006CFF" mask="url(#mask-2)"></path>
            </g>
        </g>
    </g>
</svg>