<?xml version="1.0" encoding="UTF-8" standalone="no"?>
<!-- Generator: Adobe Illustrator 16.0.0, SVG Export Plug-In . SVG Version: 6.00 Build 0)  -->
<!DOCTYPE svg  PUBLIC '-//W3C//DTD SVG 1.1//EN'  'http://www.w3.org/Graphics/SVG/1.1/DTD/svg11.dtd'>
<svg id="Layer_1" xmlns="http://www.w3.org/2000/svg" xml:space="preserve" height="415px" viewBox="0 0 415 414.996" width="415px" version="1.1" y="0px" x="0px" xmlns:xlink="http://www.w3.org/1999/xlink" enable-background="new 0 0 415 414.996">
<path d="m50.779 96.375c7.21-16.217 20.18-20.234 37.061-20.105 74.959 0.568 149.93 0.257 224.89 0.234 8.633-0.002 17.718-0.113 23.709 6.929 3.967 4.663 8.232 11.075 8.287 16.743 0.356 36.423 1.59 73.015-1.266 109.25-4.704 59.69-50.059 110.16-108.38 124.72-83.35 20.8-165.11-31.18-181.49-115.44-1.169-6.015-1.884-12.118-2.81-18.181-0.001-34.72-0.001-69.44-0.001-104.16zm147.83 113.04c-3.887-3.552-7.368-6.617-10.718-9.818-14.655-14.001-29.184-28.134-43.935-42.033-9.552-9-21.31-8.849-29.777-0.014-7.968 8.314-7.96 20.788 0.771 29.251 22.775 22.083 45.719 43.995 68.822 65.733 9.317 8.769 19.195 9.367 28.354 0.846 23.863-22.214 47.566-44.631 70.582-67.713 11.664-11.697 5.012-30.719-11.116-34.283-8.345-1.846-14.671 2.106-20.444 7.68-17.29 16.69-34.7 33.28-52.53 50.34z" fill-rule="evenodd" stroke="#ff0042" clip-rule="evenodd" fill="#ff0042"/>
</svg>
